<svg id="Layer_1" data-name="Layer 1" xmlns="http://www.w3.org/2000/svg" viewBox="0 0 385.84 190.78"><defs><style>.cls-1{fill:#f8e600;}.cls-2{fill:none;stroke-width:2px;}.cls-2,.cls-3,.cls-5{stroke:#fff;}.cls-2,.cls-3,.cls-4{opacity:0.1;}.cls-2,.cls-3,.cls-4,.cls-5{isolation:isolate;}.cls-3,.cls-5{fill:#fff;}.cls-4{fill:#221f1f;stroke:#221f1f;}.cls-5{opacity:0.2;}.cls-6{fill:#008cff;}.cls-7{fill:#ff2f3a;}.cls-8{fill:#05d950;}</style></defs><title>LCL_Logo</title><path d="M75.13,179.94V73.74h25.8v83.85H142v22.35Z"/><path d="M221.83,178.06A56.87,56.87,0,0,1,198,182.79a62.22,62.22,0,0,1-22.73-4.05,52.46,52.46,0,0,1-30.07-29.25,58.23,58.23,0,0,1-4.35-22.8,58.19,58.19,0,0,1,4.42-23.1A51.37,51.37,0,0,1,157.48,86a54.15,54.15,0,0,1,18.3-11.17,65.6,65.6,0,0,1,44.77.07,42.39,42.39,0,0,1,17.63,11.63l-17.4,17.4a21.54,21.54,0,0,0-9.45-7.35,31.37,31.37,0,0,0-12-2.4A30.4,30.4,0,0,0,187,96.61a29,29,0,0,0-9.67,6.83,31.11,31.11,0,0,0-6.3,10.28,36.27,36.27,0,0,0-2.25,13,37.32,37.32,0,0,0,2.25,13.2,30.72,30.72,0,0,0,6.23,10.28,28,28,0,0,0,9.52,6.67,30.27,30.27,0,0,0,12.15,2.4,28.25,28.25,0,0,0,13.35-3,25.87,25.87,0,0,0,9.15-7.8l17.85,16.8A50.55,50.55,0,0,1,221.83,178.06Z"/><path d="M246.43,179.94V73.74h25.8v83.85h41.1v22.35Z"/><g id="Mockups"><g id="Splash"><g id="peg_yellow" data-name="peg yellow"><circle id="Oval" class="cls-1" cx="32.57" cy="32.57" r="32.38"/><path id="Shape" class="cls-2" d="M1,32.57a31.57,31.57,0,0,1,63.14,0"/><path id="Shape-2" data-name="Shape" class="cls-3" d="M32.53,50.8a20,20,0,0,1-20-20V30a20,20,0,0,0,39.92-.18v1a20,20,0,0,1-19.93,20Z"/><path id="Shape-3" data-name="Shape" class="cls-4" d="M12.64,32.27a20,20,0,0,0,39.92.1v.93c0,11-3.73,25-20,25s-20-14-20-25C12.63,32.94,12.63,32.67,12.64,32.27Z"/><path id="Shape-4" data-name="Shape" class="cls-5" d="M32.61,11.86a20,20,0,0,1,20,20v.85a20,20,0,0,0-39.92.18v-1A20,20,0,0,1,32.61,11.86Z"/></g></g></g><g id="Mockups-2" data-name="Mockups"><g id="Splash-2" data-name="Splash"><g id="peg_blue" data-name="peg blue"><circle id="Oval-2" data-name="Oval" class="cls-6" cx="96.47" cy="32.27" r="31.71"/><path id="Shape-5" data-name="Shape" class="cls-2" d="M65.55,32.27a30.91,30.91,0,1,1,61.83,0"/><path id="Shape-6" data-name="Shape" class="cls-3" d="M96.42,50.12A19.57,19.57,0,0,1,76.85,30.55v-.83a19.57,19.57,0,0,0,39.09-.17v1A19.56,19.56,0,0,1,96.42,50.12Z"/><path id="Shape-7" data-name="Shape" class="cls-4" d="M76.95,32a19.56,19.56,0,0,0,39.09.09V33c0,10.75-3.66,24.5-19.57,24.5S76.9,43.79,76.9,33C76.94,32.64,76.94,32.37,76.95,32Z"/><path id="Shape-8" data-name="Shape" class="cls-5" d="M96.51,12a19.57,19.57,0,0,1,19.57,19.57v.83A19.57,19.57,0,0,0,77,32.57v-1A19.56,19.56,0,0,1,96.51,12Z"/></g></g></g><g id="Mockups-3" data-name="Mockups"><g id="Splash-3" data-name="Splash"><g id="peg_red" data-name="peg red"><circle id="Oval-3" data-name="Oval" class="cls-7" cx="32.64" cy="97.33" r="32.38"/><path id="Shape-9" data-name="Shape" class="cls-2" d="M1.07,97.33a31.57,31.57,0,0,1,63.14,0"/><path id="Shape-10" data-name="Shape" class="cls-3" d="M32.6,115.56a20,20,0,0,1-20-20v-.85a20,20,0,0,0,39.92-.18v1a20,20,0,0,1-19.93,20Z"/><path id="Shape-11" data-name="Shape" class="cls-4" d="M12.71,97a20,20,0,0,0,39.92.1v.93c0,11-3.73,25-20,25s-20-14-20-25C12.69,97.7,12.69,97.43,12.71,97Z"/><path id="Shape-12" data-name="Shape" class="cls-5" d="M32.68,76.62a20,20,0,0,1,20,20v.85a20,20,0,0,0-39.92.18v-1a20,20,0,0,1,19.93-20Z"/></g></g></g><g id="Mockups-4" data-name="Mockups"><g id="Splash-4" data-name="Splash"><g id="peg_green" data-name="peg green"><ellipse id="Oval-4" data-name="Oval" class="cls-8" cx="354.13" cy="160.37" rx="31.5" ry="30.41"/><path id="Shape-13" data-name="Shape" class="cls-2" d="M323.42,160.37c0-16.38,13.75-29.65,30.71-29.65s30.71,13.28,30.71,29.65"/><path id="Shape-14" data-name="Shape" class="cls-3" d="M354.09,177.49c-10.74,0-19.44-8.4-19.44-18.77v-.8c.59,10,9.15,17.75,19.5,17.71s18.84-7.9,19.33-17.87v1c0,10.35-8.67,18.75-19.39,18.77Z"/><path id="Shape-15" data-name="Shape" class="cls-4" d="M334.76,160.09c.36,10.08,8.92,18.08,19.37,18.11s19-7.94,19.46-18v.88c0,10.31-3.63,23.5-19.44,23.5s-19.39-13.14-19.39-23.5Z"/><path id="Shape-16" data-name="Shape" class="cls-5" d="M354.17,140.92c10.74,0,19.44,8.4,19.44,18.77v.8c-.59-10-9.15-17.75-19.5-17.71s-18.84,7.9-19.33,17.87v-1C334.78,149.34,343.45,140.94,354.17,140.92Z"/></g></g></g></svg>