<?xml version="1.0" encoding="UTF-8"?>
<svg width="49px" height="49px" viewBox="0 0 49 49" version="1.1" xmlns="http://www.w3.org/2000/svg" xmlns:xlink="http://www.w3.org/1999/xlink">
    <!-- Generator: Sketch 46.2 (44496) - http://www.bohemiancoding.com/sketch -->
    <title>peg_yellow</title>
    <desc>Created with Sketch.</desc>
    <defs></defs>
    <g id="Mockups" stroke="none" stroke-width="1" fill="none" fill-rule="evenodd">
        <g id="Splash" transform="translate(-296.000000, -840.000000)">
            <g id="peg_yellow" transform="translate(297.000000, 841.000000)">
                <circle id="Oval" fill="#F8E600" fill-rule="nonzero" cx="23.79" cy="23.93" r="23.59"></circle>
                <path d="M0.79,23.93 C0.79,11.2274508 11.0874508,0.93 23.79,0.93 C36.4925492,0.93 46.79,11.2274508 46.79,23.93" id="Shape" stroke="#FFFFFF" stroke-width="2" opacity="0.1"></path>
                <path d="M23.76,37.21 C15.718734,37.21 9.2,30.691266 9.2,22.65 C9.2,22.44 9.2,22.24 9.2,22.03 C9.63895428,29.7634208 16.0558997,35.799374 23.8016908,35.764747 C31.5474818,35.73012 37.9102053,29.6370362 38.28,21.9 C38.28,22.15 38.28,22.4 38.28,22.65 C38.2855345,30.6779452 31.7879301,37.1934494 23.76,37.21 L23.76,37.21 Z" id="Shape" stroke="#FFFFFF" fill="#FFFFFF" fill-rule="nonzero" opacity="0.1"></path>
                <path d="M9.27,23.71 C9.5406735,31.5316237 15.9499885,37.7379057 23.7762716,37.7567448 C31.6025546,37.7755838 38.0416742,31.6002299 38.35,23.78 C38.35,24.01 38.35,24.24 38.35,24.46 C38.35,32.46 35.63,42.69 23.79,42.69 C11.95,42.69 9.23,32.5 9.23,24.46 C9.26,24.2 9.26,24 9.27,23.71 Z" id="Shape" stroke="#221F1F" fill="#221F1F" fill-rule="nonzero" opacity="0.1"></path>
                <path d="M23.82,8.84 C31.861266,8.84 38.38,15.358734 38.38,23.4 C38.38,23.61 38.38,23.81 38.38,24.02 C37.9410457,16.2865792 31.5241003,10.250626 23.7783092,10.285253 C16.0325182,10.31988 9.66979474,16.4129638 9.3,24.15 C9.3,23.9 9.3,23.65 9.3,23.4 C9.29446545,15.3720548 15.7920699,8.85655056 23.82,8.84 Z" id="Shape" stroke="#FFFFFF" fill="#FFFFFF" fill-rule="nonzero" opacity="0.2"></path>
            </g>
        </g>
    </g>
</svg>