<?xml version="1.0" encoding="utf-8"?>
<!-- Generator: Adobe Illustrator 21.0.0, SVG Export Plug-In . SVG Version: 6.00 Build 0)  -->
<svg version="1.1" id="Layer_1" xmlns="http://www.w3.org/2000/svg" xmlns:xlink="http://www.w3.org/1999/xlink" x="0px" y="0px"
	 viewBox="0 0 49 49" style="enable-background:new 0 0 49 49;" xml:space="preserve">
<style type="text/css">
	.st0{fill:#05D950;}
	.st1{opacity:0.1;fill:none;stroke:#FFFFFF;stroke-width:2;enable-background:new    ;}
	.st2{opacity:0.1;fill:#FFFFFF;stroke:#FFFFFF;enable-background:new    ;}
	.st3{opacity:0.1;fill:#221F1F;stroke:#221F1F;enable-background:new    ;}
	.st4{opacity:0.2;fill:#FFFFFF;stroke:#FFFFFF;enable-background:new    ;}
</style>
<title>peg_green</title>
<desc>Created with Sketch.</desc>
<g id="Mockups">
	<g id="Splash" transform="translate(-1108.000000, -1067.000000)">
		<g id="peg_green" transform="translate(1108.000000, 1068.000000)">
			<circle id="Oval" class="st0" cx="24.5" cy="23.9" r="19.9"/>
			<path id="Shape" class="st1" d="M5.1,23.9c0-10.8,8.6-19.4,19.4-19.4s19.4,8.8,19.4,19.4"/>
			<path id="Shape_1_" class="st2" d="M24.5,35.2c-6.8,0-12.3-5.6-12.3-12.3c0-0.2,0-0.3,0-0.5C12.5,29,17.9,34,24.5,34
				s12-5.2,12.2-11.7c0,0.2,0,0.3,0,0.7C36.8,29.6,31.3,35.2,24.5,35.2L24.5,35.2z"/>
			<path id="Shape_2_" class="st3" d="M12.3,23.7c0.2,6.6,5.6,11.8,12.3,11.8c6.6,0,12-5.2,12.3-11.8c0,0.2,0,0.3,0,0.5
				c0,6.8-2.4,15.4-12.3,15.4S12.3,31,12.3,24.2C12.3,24.2,12.3,24.1,12.3,23.7z"/>
			<path id="Shape_3_" class="st4" d="M24.5,11.2c6.8,0,12.3,5.6,12.3,12.3c0,0.2,0,0.3,0,0.5c-0.3-6.6-5.7-11.7-12.3-11.7
				s-12,5.2-12.2,11.7c0-0.2,0-0.3,0-0.7C12.3,16.8,17.7,11.2,24.5,11.2z"/>
		</g>
	</g>
</g>
</svg>
