<?xml version="1.0" encoding="UTF-8"?>
<svg width="49px" height="49px" viewBox="0 0 49 49" version="1.1" xmlns="http://www.w3.org/2000/svg" xmlns:xlink="http://www.w3.org/1999/xlink">
    <!-- Generator: Sketch 46.2 (44496) - http://www.bohemiancoding.com/sketch -->
    <title>peg_blue</title>
    <desc>Created with Sketch.</desc>
    <defs></defs>
    <g id="Mockups" stroke="none" stroke-width="1" fill="none" fill-rule="evenodd">
        <g id="Splash" transform="translate(-345.000000, -792.000000)">
            <g id="peg_blue" transform="translate(345.000000, 793.000000)">
                <circle id="Oval" fill="#008CFF" fill-rule="nonzero" cx="24.27" cy="23.93" r="23.59"></circle>
                <path d="M1.27,23.93 C1.27,11.2274508 11.5674508,0.93 24.27,0.93 C36.9725492,0.93 47.27,11.2274508 47.27,23.93" id="Shape" stroke="#FFFFFF" stroke-width="2" opacity="0.1"></path>
                <path d="M24.24,37.21 C16.198734,37.21 9.68,30.691266 9.68,22.65 C9.68,22.44 9.68,22.24 9.68,22.03 C10.1189543,29.7634208 16.5358997,35.799374 24.2816908,35.764747 C32.0274818,35.73012 38.3902053,29.6370362 38.76,21.9 C38.76,22.15 38.76,22.4 38.76,22.65 C38.7655345,30.6779452 32.2679301,37.1934494 24.24,37.21 L24.24,37.21 Z" id="Shape" stroke="#FFFFFF" fill="#FFFFFF" fill-rule="nonzero" opacity="0.1"></path>
                <path d="M9.75,23.71 C10.0206735,31.5316237 16.4299885,37.7379057 24.2562716,37.7567448 C32.0825546,37.7755838 38.5216742,31.6002299 38.83,23.78 C38.83,24.01 38.83,24.24 38.83,24.46 C38.83,32.46 36.11,42.69 24.27,42.69 C12.43,42.69 9.71,32.5 9.71,24.46 C9.74,24.2 9.74,24 9.75,23.71 Z" id="Shape" stroke="#221F1F" fill="#221F1F" fill-rule="nonzero" opacity="0.1"></path>
                <path d="M24.3,8.84 C32.341266,8.84 38.86,15.358734 38.86,23.4 C38.86,23.61 38.86,23.81 38.86,24.02 C38.4210457,16.2865792 32.0041003,10.250626 24.2583092,10.285253 C16.5125182,10.31988 10.1497947,16.4129638 9.78,24.15 C9.78,23.9 9.78,23.65 9.78,23.4 C9.77446545,15.3720548 16.2720699,8.85655056 24.3,8.84 Z" id="Shape" stroke="#FFFFFF" fill="#FFFFFF" fill-rule="nonzero" opacity="0.2"></path>
            </g>
        </g>
    </g>
</svg>