<?xml version="1.0" encoding="UTF-8"?>
<svg width="49px" height="49px" viewBox="0 0 49 49" version="1.1" xmlns="http://www.w3.org/2000/svg" xmlns:xlink="http://www.w3.org/1999/xlink">
    <!-- Generator: Sketch 46.2 (44496) - http://www.bohemiancoding.com/sketch -->
    <title>peg_red</title>
    <desc>Created with Sketch.</desc>
    <defs></defs>
    <g id="Mockups" stroke="none" stroke-width="1" fill="none" fill-rule="evenodd">
        <g id="Splash" transform="translate(-1050.000000, -996.000000)">
            <g id="peg_red" transform="translate(1050.000000, 997.000000)">
                <circle id="Oval" fill="#FF2F3A" fill-rule="nonzero" cx="24.31" cy="23.93" r="23.59"></circle>
                <path d="M1.31,23.93 C1.31,11.2274508 11.6074508,0.93 24.31,0.93 C37.0125492,0.93 47.31,11.2274508 47.31,23.93" id="Shape" stroke="#FFFFFF" stroke-width="2" opacity="0.1"></path>
                <path d="M24.28,37.21 C16.238734,37.21 9.72,30.691266 9.72,22.65 C9.72,22.44 9.72,22.24 9.72,22.03 C10.1589543,29.7634208 16.5758997,35.799374 24.3216908,35.764747 C32.0674818,35.73012 38.4302053,29.6370362 38.8,21.9 C38.8,22.15 38.8,22.4 38.8,22.65 C38.8055345,30.6779452 32.3079301,37.1934494 24.28,37.21 L24.28,37.21 Z" id="Shape" stroke="#FFFFFF" fill="#FFFFFF" fill-rule="nonzero" opacity="0.1"></path>
                <path d="M9.79,23.71 C10.0606735,31.5316237 16.4699885,37.7379057 24.2962716,37.7567448 C32.1225546,37.7755838 38.5616742,31.6002299 38.87,23.78 C38.87,24.01 38.87,24.24 38.87,24.46 C38.87,32.46 36.15,42.69 24.31,42.69 C12.47,42.69 9.75,32.5 9.75,24.46 C9.78,24.2 9.78,24 9.79,23.71 Z" id="Shape" stroke="#221F1F" fill="#221F1F" fill-rule="nonzero" opacity="0.1"></path>
                <path d="M24.34,8.84 C32.381266,8.84 38.9,15.358734 38.9,23.4 C38.9,23.61 38.9,23.81 38.9,24.02 C38.4610457,16.2865792 32.0441003,10.250626 24.2983092,10.285253 C16.5525182,10.31988 10.1897947,16.4129638 9.82,24.15 C9.82,23.9 9.82,23.65 9.82,23.4 C9.81446545,15.3720548 16.3120699,8.85655056 24.34,8.84 L24.34,8.84 Z" id="Shape" stroke="#FFFFFF" fill="#FFFFFF" fill-rule="nonzero" opacity="0.2"></path>
            </g>
        </g>
    </g>
</svg>