<?xml version="1.0" encoding="utf-8"?>
<!-- Generator: Adobe Illustrator 21.0.0, SVG Export Plug-In . SVG Version: 6.00 Build 0)  -->
<svg version="1.1" id="Layer_1" xmlns="http://www.w3.org/2000/svg" xmlns:xlink="http://www.w3.org/1999/xlink" x="0px" y="0px"
	 viewBox="0 0 49 49" style="enable-background:new 0 0 49 49;" xml:space="preserve">
<style type="text/css">
	.st0{fill:#05D950;}
	.st1{opacity:0.1;fill:none;stroke:#FFFFFF;stroke-width:2;enable-background:new    ;}
	.st2{opacity:0.1;fill:#FFFFFF;stroke:#FFFFFF;enable-background:new    ;}
	.st3{opacity:0.1;fill:#221F1F;stroke:#221F1F;enable-background:new    ;}
	.st4{opacity:0.2;fill:#FFFFFF;stroke:#FFFFFF;enable-background:new    ;}
</style>
<title>peg_green</title>
<desc>Created with Sketch.</desc>
<g id="Mockups">
	<g id="Splash" transform="translate(-1108.000000, -1067.000000)">
		<g id="peg_green" transform="translate(1108.000000, 1068.000000)">
			<circle id="Oval" class="st0" cx="24.5" cy="23.9" r="15.3"/>
			<path id="Shape" class="st1" d="M9.6,23.9c0-8.3,6.6-14.9,14.9-14.9s15,6.8,15,14.9"/>
			<path id="Shape_1_" class="st2" d="M24.5,32.6c-5.2,0-9.5-4.3-9.5-9.5c0-0.1,0-0.3,0-0.4c0.3,5.1,4.4,9,9.5,9s9.2-4,9.4-9
				c0,0.1,0,0.3,0,0.5C34,28.3,29.7,32.6,24.5,32.6L24.5,32.6z"/>
			<path id="Shape_2_" class="st3" d="M15.1,23.8c0.1,5.1,4.3,9.1,9.5,9.1c5.1,0,9.2-4,9.5-9.1c0,0.1,0,0.3,0,0.4
				c0,5.2-1.8,11.8-9.5,11.8s-9.5-6.6-9.5-11.8C15.1,24.2,15.1,24,15.1,23.8z"/>
			<path id="Shape_3_" class="st4" d="M24.5,14.1c5.2,0,9.5,4.3,9.5,9.5c0,0.1,0,0.3,0,0.4c-0.3-5.1-4.4-9-9.5-9s-9.2,4-9.4,9
				c0-0.1,0-0.3,0-0.5C15.1,18.4,19.3,14.1,24.5,14.1z"/>
		</g>
	</g>
</g>
</svg>
