<?xml version="1.0" encoding="utf-8"?>
<!-- Generator: Adobe Illustrator 21.0.0, SVG Export Plug-In . SVG Version: 6.00 Build 0)  -->
<svg version="1.1" id="Layer_1" xmlns="http://www.w3.org/2000/svg" xmlns:xlink="http://www.w3.org/1999/xlink" x="0px" y="0px"
	 viewBox="0 0 49 49" style="enable-background:new 0 0 49 49;" xml:space="preserve">
<style type="text/css">
	.st0{fill:#05D950;}
	.st1{opacity:0.1;fill:none;stroke:#FFFFFF;stroke-width:2;enable-background:new    ;}
	.st2{opacity:0.1;fill:#FFFFFF;stroke:#FFFFFF;enable-background:new    ;}
	.st3{opacity:0.1;fill:#221F1F;stroke:#221F1F;enable-background:new    ;}
	.st4{opacity:0.2;fill:#FFFFFF;stroke:#FFFFFF;enable-background:new    ;}
</style>
<title>peg_green</title>
<desc>Created with Sketch.</desc>
<g id="Mockups">
	<g id="Splash" transform="translate(-1108.000000, -1067.000000)">
		<g id="peg_green" transform="translate(1108.000000, 1068.000000)">
			<circle id="Oval" class="st0" cx="24.5" cy="23.9" r="11.8"/>
			<path id="Shape" class="st1" d="M13,23.9c0-6.4,5.1-11.5,11.5-11.5S36,17.6,36,23.9"/>
			<path id="Shape_1_" class="st2" d="M24.5,30.6c-4,0-7.3-3.3-7.3-7.3c0-0.1,0-0.2,0-0.3c0.2,3.9,3.4,6.9,7.3,6.9s7.1-3.1,7.2-6.9
				c0,0.1,0,0.2,0,0.4C31.8,27.3,28.5,30.6,24.5,30.6L24.5,30.6z"/>
			<path id="Shape_2_" class="st3" d="M17.3,23.8c0.1,3.9,3.3,7,7.3,7c3.9,0,7.1-3.1,7.3-7c0,0.1,0,0.2,0,0.3c0,4-1.4,9.1-7.3,9.1
				s-7.3-5.1-7.3-9.1C17.3,24.1,17.3,24,17.3,23.8z"/>
			<path id="Shape_3_" class="st4" d="M24.5,16.4c4,0,7.3,3.3,7.3,7.3c0,0.1,0,0.2,0,0.3c-0.2-3.9-3.4-6.9-7.3-6.9s-7.1,3.1-7.2,6.9
				c0-0.1,0-0.2,0-0.4C17.3,19.7,20.5,16.4,24.5,16.4z"/>
		</g>
	</g>
</g>
</svg>
